<control>


default_path=Brass\Tenor Trombone\stac\


<global>




ampeg_attack=0.001


ampeg_release=3


ampeg_dynamic=1




volume=0




<group> //Begin Group 1




lorand=0.0 hirand=0.5


group_label=gr_1






<region>
sample=tenortbn_stac_A#0_v1_rr1.wav
lokey=34
hikey=37
pitch_keycenter=34
lovel=0
hivel=30
volume=23


<region>
sample=tenortbn_stac_A#1_v1_rr1.wav
lokey=44
hikey=49
pitch_keycenter=46
lovel=0
hivel=30
volume=23


<region>
sample=tenortbn_stac_A#2_v1_rr1.wav
lokey=56
hikey=59
pitch_keycenter=58
lovel=0
hivel=30
volume=23


<region>
sample=tenortbn_stac_D3_v1_rr1.wav
lokey=60
hikey=63
pitch_keycenter=62
lovel=0
hivel=30
volume=23


<region>
sample=tenortbn_stac_F1_v1_rr1.wav
lokey=38
hikey=43
pitch_keycenter=41
lovel=0
hivel=30
volume=23


<region>
sample=tenortbn_stac_F2_v1_rr1.wav
lokey=50
hikey=55
pitch_keycenter=53
lovel=0
hivel=30
volume=23


<region>
sample=tenortbn_stac_F3_v1_rr1.wav
lokey=64
hikey=70
pitch_keycenter=65
lovel=0
hivel=30
volume=23


<region>
sample=tenortbn_stac_A#0_v2_rr1.wav
lokey=34
hikey=37
pitch_keycenter=34
lovel=31
hivel=62
volume=16


<region>
sample=tenortbn_stac_A#1_v2_rr1.wav
lokey=44
hikey=49
pitch_keycenter=46
lovel=31
hivel=62
volume=16


<region>
sample=tenortbn_stac_A#2_v2_rr1.wav
lokey=56
hikey=59
pitch_keycenter=58
lovel=31
hivel=62
volume=16


<region>
sample=tenortbn_stac_D3_v2_rr1.wav
lokey=60
hikey=63
pitch_keycenter=62
lovel=31
hivel=62
volume=16


<region>
sample=tenortbn_stac_F1_v2_rr1.wav
lokey=38
hikey=43
pitch_keycenter=41
lovel=31
hivel=62
volume=16


<region>
sample=tenortbn_stac_F2_v2_rr1.wav
lokey=50
hikey=55
pitch_keycenter=53
lovel=31
hivel=62
volume=16


<region>
sample=tenortbn_stac_F3_v2_rr1.wav
lokey=64
hikey=70
pitch_keycenter=65
lovel=31
hivel=62
volume=16


<region>
sample=tenortbn_stac_A#0_v3_rr1.wav
lokey=34
hikey=37
pitch_keycenter=34
lovel=63
hivel=94
volume=10


<region>
sample=tenortbn_stac_A#1_v3_rr1.wav
lokey=44
hikey=49
pitch_keycenter=46
lovel=63
hivel=94
volume=10


<region>
sample=tenortbn_stac_A#2_v3_rr1.wav
lokey=56
hikey=59
pitch_keycenter=58
lovel=63
hivel=94
volume=10


<region>
sample=tenortbn_stac_D3_v3_rr1.wav
lokey=60
hikey=63
pitch_keycenter=62
lovel=63
hivel=94
volume=10


<region>
sample=tenortbn_stac_F1_v3_rr1.wav
lokey=38
hikey=43
pitch_keycenter=41
lovel=63
hivel=94
volume=10


<region>
sample=tenortbn_stac_F2_v3_rr1.wav
lokey=50
hikey=55
pitch_keycenter=53
lovel=63
hivel=94
volume=10


<region>
sample=tenortbn_stac_F3_v3_rr1.wav
lokey=64
hikey=70
pitch_keycenter=65
lovel=63
hivel=94
volume=10


<region>
sample=tenortbn_stac_A#0_v4_rr1.wav
lokey=34
hikey=37
pitch_keycenter=34
lovel=95
hivel=127
volume=3


<region>
sample=tenortbn_stac_A#1_v4_rr1.wav
lokey=44
hikey=49
pitch_keycenter=46
lovel=95
hivel=127
volume=3


<region>
sample=tenortbn_stac_A#2_v4_rr1.wav
lokey=56
hikey=59
pitch_keycenter=58
lovel=95
hivel=127
volume=3


<region>
sample=tenortbn_stac_D3_v4_rr1.wav
lokey=60
hikey=63
pitch_keycenter=62
lovel=95
hivel=127
volume=3


<region>
sample=tenortbn_stac_F1_v4_rr1.wav
lokey=38
hikey=43
pitch_keycenter=41
lovel=95
hivel=127
volume=3


<region>
sample=tenortbn_stac_F2_v4_rr1.wav
lokey=50
hikey=55
pitch_keycenter=53
lovel=95
hivel=127
volume=3


<region>
sample=tenortbn_stac_F3_v4_rr1.wav
lokey=64
hikey=70
pitch_keycenter=65
lovel=95
hivel=127
volume=3


<group> //Begin Group 2




lorand=0.5 hirand=1.0


group_label=gr_2






<region>
sample=tenortbn_stac_A#0_v1_rr2.wav
lokey=34
hikey=37
pitch_keycenter=34
lovel=0
hivel=30
volume=23


<region>
sample=tenortbn_stac_A#1_v1_rr2.wav
lokey=44
hikey=49
pitch_keycenter=46
lovel=0
hivel=30
volume=23


<region>
sample=tenortbn_stac_A#2_v1_rr2.wav
lokey=56
hikey=59
pitch_keycenter=58
lovel=0
hivel=41
volume=22


<region>
sample=tenortbn_stac_D3_v1_rr2.wav
lokey=60
hikey=63
pitch_keycenter=62
lovel=0
hivel=30
volume=23


<region>
sample=tenortbn_stac_F1_v1_rr2.wav
lokey=38
hikey=43
pitch_keycenter=41
lovel=0
hivel=30
volume=23


<region>
sample=tenortbn_stac_F2_v1_rr2.wav
lokey=50
hikey=55
pitch_keycenter=53
lovel=0
hivel=30
volume=23


<region>
sample=tenortbn_stac_F3_v1_rr2.wav
lokey=64
hikey=70
pitch_keycenter=65
lovel=0
hivel=30
volume=23


<region>
sample=tenortbn_stac_A#0_v2_rr2.wav
lokey=34
hikey=37
pitch_keycenter=34
lovel=31
hivel=62
volume=16


<region>
sample=tenortbn_stac_A#1_v2_rr2.wav
lokey=44
hikey=49
pitch_keycenter=46
lovel=31
hivel=62
volume=16


<region>
sample=tenortbn_stac_A#2_v2_rr2.wav
lokey=56
hikey=59
pitch_keycenter=58
lovel=42
hivel=83
volume=13


<region>
sample=tenortbn_stac_D3_v2_rr2.wav
lokey=60
hikey=63
pitch_keycenter=62
lovel=31
hivel=62
volume=16


<region>
sample=tenortbn_stac_F1_v2_rr2.wav
lokey=38
hikey=43
pitch_keycenter=41
lovel=31
hivel=62
volume=16


<region>
sample=tenortbn_stac_F2_v2_rr2.wav
lokey=50
hikey=55
pitch_keycenter=53
lovel=31
hivel=62
volume=16


<region>
sample=tenortbn_stac_F3_v2_rr2.wav
lokey=64
hikey=70
pitch_keycenter=65
lovel=31
hivel=62
volume=16


<region>
sample=tenortbn_stac_A#0_v3_rr2.wav
lokey=34
hikey=37
pitch_keycenter=34
lovel=63
hivel=94
volume=10


<region>
sample=tenortbn_stac_A#1_v3_rr2.wav
lokey=44
hikey=49
pitch_keycenter=46
lovel=63
hivel=94
volume=10


<region>
sample=tenortbn_stac_A#2_v3_rr2.wav
lokey=56
hikey=59
pitch_keycenter=58
lovel=84
hivel=127
volume=4


<region>
sample=tenortbn_stac_D3_v3_rr2.wav
lokey=60
hikey=63
pitch_keycenter=62
lovel=63
hivel=94
volume=10


<region>
sample=tenortbn_stac_F1_v3_rr2.wav
lokey=38
hikey=43
pitch_keycenter=41
lovel=63
hivel=94
volume=10


<region>
sample=tenortbn_stac_F2_v3_rr2.wav
lokey=50
hikey=55
pitch_keycenter=53
lovel=63
hivel=94
volume=10


<region>
sample=tenortbn_stac_F3_v3_rr2.wav
lokey=64
hikey=70
pitch_keycenter=65
lovel=63
hivel=94
volume=10


<region>
sample=tenortbn_stac_A#0_v4_rr2.wav
lokey=34
hikey=37
pitch_keycenter=34
lovel=95
hivel=127
volume=3


<region>
sample=tenortbn_stac_A#1_v4_rr2.wav
lokey=44
hikey=49
pitch_keycenter=46
lovel=95
hivel=127
volume=3


<region>
sample=tenortbn_stac_D3_v4_rr2.wav
lokey=60
hikey=63
pitch_keycenter=62
lovel=95
hivel=127
volume=3


<region>
sample=tenortbn_stac_F1_v4_rr2.wav
lokey=38
hikey=43
pitch_keycenter=41
lovel=95
hivel=127
volume=3


<region>
sample=tenortbn_stac_F2_v4_rr2.wav
lokey=50
hikey=55
pitch_keycenter=53
lovel=95
hivel=127
volume=3


<region>
sample=tenortbn_stac_F3_v4_rr2.wav
lokey=64
hikey=70
pitch_keycenter=65
lovel=95
hivel=127
volume=3


